<svg width="1200" height="630" viewBox="0 0 1200 630" fill="none" xmlns="http://www.w3.org/2000/svg">
  <defs>
    <linearGradient id="bg" x1="120" y1="40" x2="1080" y2="590" gradientUnits="userSpaceOnUse">
      <stop stop-color="#1A264C" />
      <stop offset="0.55" stop-color="#0A1022" />
      <stop offset="1" stop-color="#06070D" />
    </linearGradient>
    <radialGradient id="glowA" cx="0" cy="0" r="1" gradientUnits="userSpaceOnUse" gradientTransform="translate(270 180) rotate(39) scale(330 210)">
      <stop stop-color="#6CD5FF" stop-opacity="0.42" />
      <stop offset="1" stop-color="#6CD5FF" stop-opacity="0" />
    </radialGradient>
    <radialGradient id="glowB" cx="0" cy="0" r="1" gradientUnits="userSpaceOnUse" gradientTransform="translate(940 470) rotate(-32) scale(320 220)">
      <stop stop-color="#FFBE7B" stop-opacity="0.32" />
      <stop offset="1" stop-color="#FFBE7B" stop-opacity="0" />
    </radialGradient>
  </defs>

  <rect width="1200" height="630" fill="url(#bg)" />
  <rect width="1200" height="630" fill="url(#glowA)" />
  <rect width="1200" height="630" fill="url(#glowB)" />

  <g opacity="0.15" stroke="#B7C6F2">
    <path d="M80 120H1120" />
    <path d="M80 180H1120" />
    <path d="M80 240H1120" />
    <path d="M80 300H1120" />
    <path d="M80 360H1120" />
    <path d="M80 420H1120" />
    <path d="M80 480H1120" />
    <path d="M80 540H1120" />
  </g>

  <rect x="92" y="86" width="1016" height="458" rx="26" fill="#0B1123" fill-opacity="0.56" stroke="#6E85C7" stroke-opacity="0.48" />

  <text x="140" y="175" fill="#6CD5FF" font-family="Manrope, Arial, sans-serif" font-size="26" font-weight="800" letter-spacing="4">
    BACKEND ENGINEER · JAVA · SPRING BOOT
  </text>

  <text x="140" y="265" fill="#EDF2FF" font-family="Manrope, Arial, sans-serif" font-size="66" font-weight="800">
    Alex Joy
  </text>

  <text x="140" y="336" fill="#EDF2FF" font-family="Manrope, Arial, sans-serif" font-size="44" font-weight="700">
    Production-Ready Backend APIs
  </text>

  <text x="140" y="392" fill="#BFCBEA" font-family="Manrope, Arial, sans-serif" font-size="28" font-weight="500">
    Order Processing · Reconciliation · AI Support
  </text>

  <g>
    <rect x="140" y="438" width="206" height="56" rx="28" fill="#121C38" stroke="#7A91D4" />
    <text x="183" y="474" fill="#EDF2FF" font-family="Manrope, Arial, sans-serif" font-size="24" font-weight="700">Live APIs</text>

    <rect x="362" y="438" width="246" height="56" rx="28" fill="#121C38" stroke="#7A91D4" />
    <text x="404" y="474" fill="#EDF2FF" font-family="Manrope, Arial, sans-serif" font-size="24" font-weight="700">Case Studies</text>
  </g>
</svg>
